<svg xmlns="http://www.w3.org/2000/svg" xmlns:svg="http://www.w3.org/2000/svg" id="svg6" width="512" height="512" version="1.0" viewBox="0 0 5.689 5.689" xml:space="preserve" style="fill-rule:evenodd"><metadata id="metadata12"/><g id="g4" transform="matrix(1.1013453,0,0,1.1013453,-3.5944937,-1.7083628)"><path id="path2" d="m 5.8465,1.9131 c 0.57932,0 1.1068,0.222 1.5022,0.58547 -0.1938,-0.0052 -0.3872,0.11 -0.3952,0.3738 -0.0163,0.5333 0.6377,0.6469 0.2853,1.7196 L 6.9473,5.47927 6.1534,3.14067 c -0.0123,-0.0362 0.002,-0.0568 0.0465,-0.0568 h 0.22445 c 0.011665,0 0.021201,-0.00996 0.021201,-0.022158 v -0.13294 c 0,-0.012193 -0.00956,-0.022657 -0.021201,-0.022153 -0.42505,0.018587 -0.8476,0.018713 -1.2676,0 -0.0117,-5e-4 -0.0212,0.01 -0.0212,0.0222 v 0.13294 c 0,0.012185 0.00954,0.022158 0.021201,0.022158 h 0.22568 c 0.050201,0 0.064256,0.016728 0.076091,0.049087 l 0.3262,0.8921 -0.4907,1.4817 -0.8066,-2.3758 c -0.01,-0.0298 0.0021,-0.0471 0.0308,-0.0471 h 0.25715 c 0.011661,0 0.021197,-0.00996 0.021197,-0.022158 v -0.13294 c 0,-0.012193 -0.00957,-0.022764 -0.021197,-0.022153 -0.2698,0.014331 -0.54063,0.017213 -0.79291,0.019803 0.39589,-0.60984 1.0828,-1.0134 1.8639,-1.0134 l -2.9e-6,-6.2e-6 z m 1.9532,1.1633 c 0.17065,0.31441 0.26755,0.67464 0.26755,1.0574 0,0.84005 -0.46675,1.5712 -1.1549,1.9486 l 0.6926,-1.9617 c 0.1073,-0.3036 0.2069,-0.7139 0.1947,-1.0443 h -4e-6 z M 6.59,6.2268 C 6.3575,6.3095 6.1073,6.3546 5.8465,6.3546 5.6218,6.3546 5.405,6.3211 5.2006,6.2591 L 5.88475,4.2985 6.58999,6.2269 v -10e-8 z M 4.8962,6.1414 C 4.14519,5.78523 3.6257,5.0201 3.6257,4.1339 c 0,-0.32852 0.071465,-0.64038 0.19955,-0.92096 l 1.071,2.9285 3e-6,-3e-6 z M 5.84643,1.7047 c 1.3413,0 2.4291,1.0878 2.4291,2.4291 0,1.3413 -1.0878,2.4291 -2.4291,2.4291 -1.3413,0 -2.4291,-1.0878 -2.4291,-2.4291 0,-1.3413 1.0878,-2.4291 2.4291,-2.4291 z m 0,-0.15354 c 1.4261,0 2.5827,1.1566 2.5827,2.5827 0,1.4261 -1.1566,2.5827 -2.5827,2.5827 -1.4261,0 -2.5827,-1.1566 -2.5827,-2.5827 0,-1.4261 1.1566,-2.5827 2.5827,-2.5827 z" style="fill:#464342"/></g><g id="g864" transform="matrix(1.024031,0,0,1.024031,-7.1136177,-2.0059993)"><rect id="rect833" width="3.08" height="1.853" x="9.367" y="5.606" ry=".157" style="fill:#fff;fill-opacity:1;stroke:#000;stroke-width:.11111108"/><path id="path835" d="M 9.7555569,7.0662692 V 5.9987025 H 10.06665 l 0.311094,0.3924877 0.311093,-0.3924877 h 0.311094 V 7.0662692 H 10.688837 V 6.4539883 L 10.377744,6.846476 10.06665,6.4539883 v 0.6122809 z" style="fill:#000;stroke-width:.01111111"/><path id="path837" d="m 11.699891,7.0662692 -0.46664,-0.5180839 h 0.311093 V 5.9987025 h 0.311093 v 0.5494828 h 0.311094 z" style="fill:#000;stroke-width:.01111111"/></g><flowRoot id="flowRoot857" xml:space="preserve" style="fill:#000;fill-opacity:1;stroke:none;font-family:'Open Sans';font-style:normal;font-weight:400;font-size:18.66666667px;line-height:1.25;letter-spacing:0;word-spacing:0;-inkscape-font-specification:'Open Sans, Normal';font-stretch:normal;font-variant:normal;text-anchor:start;text-align:start;writing-mode:lr;font-variant-ligatures:normal;font-variant-caps:normal;font-variant-numeric:normal"><flowRegion id="flowRegion859"><rect id="rect861" width="150.424" height="21.186" x="120.763" y="-636.305"/></flowRegion><flowPara id="flowPara863"/></flowRoot></svg>